# xmcd
#
# Track frame offsets: 
#        150
#        13897
#        27289
#        39463
#        52659
#        66167
#        78745
#        93843
#        110591
#        122153
#
# Disc length: 1817 seconds
#
# Revision: 0
# Processed by: cddbd v1.5.2PL0 Copyright (c) Steve Scherf et al.
# Submitted via: ExactAudioCopy v0.95b3
#
DISCID=7c07170a
DTITLE=John Anderson - Country Classics
DYEAR=2006
DGENRE=Country
TTITLE0=Swingin
TTITLE1=Black Sheep
TTITLE2=Chicken Truck
TTITLE3=Would You Catch A Falling Star
TTITLE4=Your Lying Blue Eyes
TTITLE5=She Sure Got Away With My Heart
TTITLE6=It's All Over Now
TTITLE7=Honky Tonk Crowd
TTITLE8=Let Somebody Else Drive
TTITLE9=I Wish I Could Write You A Song
EXTD=
EXTT0=
EXTT1=
EXTT2=
EXTT3=
EXTT4=
EXTT5=
EXTT6=
EXTT7=
EXTT8=
EXTT9=
PLAYORDER=
